<svg width="25" height="26" viewBox="0 0 25 26" fill="none" xmlns="http://www.w3.org/2000/svg">
<path d="M12.5 26C19.4036 26 25 20.1797 25 13C25 5.8203 19.4036 0 12.5 0C5.59644 0 0 5.8203 0 13C0 20.1797 5.59644 26 12.5 26Z" fill="#27AE60"/>
<path d="M5.7197 12.7183L17.7718 7.88556C18.3312 7.6754 18.8197 8.02748 18.6384 8.90715L18.6395 8.90606L16.5874 18.9605C16.4353 19.6733 16.028 19.8466 15.4582 19.5108L12.3332 17.1156L10.8259 18.6257C10.6593 18.7991 10.5187 18.9453 10.1957 18.9453L10.4176 15.6379L16.2093 10.1963C16.4614 9.96556 16.153 9.83556 15.8207 10.0652L8.66345 14.7517L5.57803 13.7507C4.90824 13.5297 4.89366 13.0541 5.7197 12.7183Z" fill="white"/>
</svg>
