<svg width="32" height="32" viewBox="0 0 32 32" fill="none" xmlns="http://www.w3.org/2000/svg">
<path d="M12.0001 29.3334C12.7365 29.3334 13.3334 28.7365 13.3334 28.0001C13.3334 27.2637 12.7365 26.6667 12.0001 26.6667C11.2637 26.6667 10.6667 27.2637 10.6667 28.0001C10.6667 28.7365 11.2637 29.3334 12.0001 29.3334Z" fill="#27AE60" stroke="#27AE60" stroke-width="2" stroke-linecap="round" stroke-linejoin="round"/>
<path d="M26.6666 29.3334C27.403 29.3334 27.9999 28.7365 27.9999 28.0001C27.9999 27.2637 27.403 26.6667 26.6666 26.6667C25.9302 26.6667 25.3333 27.2637 25.3333 28.0001C25.3333 28.7365 25.9302 29.3334 26.6666 29.3334Z" fill="#27AE60" stroke="#27AE60" stroke-width="2" stroke-linecap="round" stroke-linejoin="round"/>
<path d="M1.33325 1.33325H6.66658L10.2399 19.1866C10.3618 19.8004 10.6958 20.3519 11.1833 20.7443C11.6708 21.1368 12.2808 21.3452 12.9066 21.3333H25.8666C26.4923 21.3452 27.1023 21.1368 27.5899 20.7443C28.0774 20.3519 28.4113 19.8004 28.5332 19.1866L30.6666 7.99992H7.99992" stroke="#27AE60" stroke-width="2" stroke-linecap="round" stroke-linejoin="round"/>
</svg>
