<svg width="303" height="473" viewBox="0 0 303 473" fill="none" xmlns="http://www.w3.org/2000/svg">
<path fill-rule="evenodd" clip-rule="evenodd" d="M45.3375 61.1122C44.169 62.2737 40.8859 65.5421 38.0418 68.3753C35.1977 71.2084 30.4445 75.9431 27.4791 78.8967C24.5137 81.8504 22.0875 84.2849 22.0875 84.307C22.0875 84.329 24.9703 84.3563 28.4936 84.3677L34.8997 84.3883L27.9524 91.3056C15.8219 103.384 10.0616 109.138 10.0616 109.176C10.0616 109.197 14.3909 109.214 19.6823 109.214C24.9737 109.214 29.303 109.244 29.303 109.28C29.303 109.317 29.0234 109.615 28.6817 109.943C27.8605 110.73 10.561 127.943 4.65 133.854L0 138.504L46.7606 138.505C72.4789 138.505 93.5211 138.478 93.5211 138.445C93.5211 138.412 93.1959 138.04 92.7984 137.62C92.401 137.199 91.7427 136.496 91.3354 136.057C90.928 135.617 90.5307 135.191 90.4524 135.109C90.374 135.027 89.6734 134.282 88.8955 133.453C86.1942 130.576 85.3014 129.626 84.9427 129.247C84.7442 129.038 84.0949 128.347 83.4996 127.712C82.9043 127.078 82.1447 126.268 81.8116 125.913C81.2141 125.276 80.3975 124.398 79.4533 123.377C79.1873 123.089 78.4647 122.347 77.8474 121.726C76.7688 120.643 75.3402 119.133 71.0318 114.525C69.9353 113.352 68.744 112.084 68.3844 111.708C68.0248 111.332 67.3601 110.626 66.9072 110.139L66.0836 109.254L74.6906 109.214L83.2977 109.173L82.4566 108.289C81.994 107.802 81.3612 107.132 81.0504 106.8C79.8695 105.538 77.6479 103.168 76.4486 101.891C75.7628 101.161 74.896 100.237 74.5223 99.8388C74.1487 99.4405 73.605 98.861 73.3142 98.5512C72.5422 97.7288 70.009 95.0275 69.3522 94.3264C69.0413 93.9945 68.2258 93.1254 67.54 92.3951C66.2097 90.9785 64.1854 88.8195 62.2208 86.7219C61.5577 86.0138 60.7899 85.199 60.5149 84.9113L60.0148 84.3883L65.624 84.3676C68.709 84.3562 71.2332 84.3194 71.2332 84.2857C71.2332 84.2521 70.4703 83.4104 69.5377 82.4153C65.9691 78.6072 65.5451 78.1554 64.2983 76.8313C63.5928 76.0821 62.1136 74.5054 61.0112 73.3276C55.9938 67.9666 52.4793 64.2178 51.9165 63.6267C51.5795 63.2726 50.4609 62.0866 49.4308 60.9913C48.4007 59.8959 47.5363 58.9998 47.5099 59C47.4836 59.0002 46.506 59.9508 45.3375 61.1122ZM232.219 59.7451C231.8 60.1539 226.786 65.1402 221.075 70.8258C215.365 76.5114 209.999 81.8515 209.15 82.6926C208.301 83.5337 207.606 84.2503 207.606 84.2849C207.606 84.3196 210.493 84.348 214.021 84.348H220.435L214.844 89.9207C211.768 92.9856 206.925 97.8146 204.08 100.652C201.235 103.489 198.159 106.549 197.244 107.452C196.329 108.355 195.581 109.121 195.581 109.154C195.581 109.187 199.919 109.214 205.221 109.215L214.862 109.217L210.533 113.543C208.152 115.922 204.688 119.351 202.836 121.162C200.984 122.973 197.178 126.738 194.378 129.529C191.578 132.32 188.422 135.461 187.366 136.51C186.309 137.559 185.464 138.436 185.488 138.461C185.513 138.485 206.563 138.496 232.266 138.485L279 138.465L277.557 136.933C276.763 136.09 275.591 134.842 274.951 134.158C274.312 133.475 273.498 132.607 273.143 132.23C271.917 130.929 269.616 128.477 268.457 127.237C267.818 126.554 266.68 125.342 265.929 124.544C265.177 123.747 261.688 120.029 258.175 116.282C254.662 112.534 251.75 109.445 251.704 109.417C251.659 109.388 251.621 109.331 251.621 109.29C251.621 109.243 254.938 109.206 260.204 109.194L268.788 109.173L267.841 108.166C266.889 107.154 263.05 103.061 260.445 100.283C259.677 99.4635 258.484 98.1951 257.796 97.4648C257.108 96.7345 255.683 95.2136 254.629 94.085C253.575 92.9564 252.131 91.4174 251.42 90.665C250.709 89.9126 249.265 88.3736 248.212 87.245C247.158 86.1164 246.125 85.0119 245.915 84.7906L245.534 84.3883L251.143 84.3676C254.228 84.3562 256.752 84.3231 256.752 84.2939C256.752 84.2648 256.545 84.02 256.291 83.7499C255.065 82.4442 253.283 80.5433 252.024 79.1979C250.336 77.3952 249.454 76.4565 248.697 75.6571C248.383 75.3252 247.535 74.4199 246.812 73.6454C246.089 72.8708 245.241 71.9655 244.928 71.6336C244.615 71.3016 244.072 70.7226 243.721 70.347C243.37 69.9713 243.064 69.6454 243.04 69.6228C243.017 69.6001 242.422 68.966 241.719 68.2135C240.541 66.9539 238.396 64.6693 237.112 63.3048C236.82 62.995 235.971 62.0897 235.225 61.293C233.11 59.034 233.077 58.9995 233.028 59.0007C233.002 59.0013 232.638 59.3363 232.219 59.7451Z" fill="#009245"/>
<path fill-rule="evenodd" clip-rule="evenodd" d="M137.967 4.45735C136.37 6.46857 131.883 12.1278 127.996 17.0337C124.108 21.9394 117.612 30.1376 113.558 35.2519C109.505 40.3662 106.189 44.5818 106.189 44.6199C106.189 44.6581 110.129 44.7054 114.945 44.725L123.701 44.7607L114.205 56.7384C97.6255 77.6523 89.7523 87.6151 89.7523 87.6819C89.7523 87.7176 95.6696 87.7467 102.902 87.7467C110.134 87.7467 116.051 87.7988 116.051 87.8625C116.051 87.9262 115.669 88.4423 115.202 89.0094C114.08 90.3722 90.4348 120.177 82.3556 130.412L76 138.465L139.912 138.465C175.064 138.466 203.825 138.419 203.825 138.361C203.825 138.304 203.38 137.661 202.837 136.933C202.294 136.205 201.394 134.987 200.837 134.226C200.281 133.466 199.737 132.727 199.63 132.585C199.523 132.444 198.566 131.154 197.502 129.719C193.81 124.736 192.59 123.091 192.1 122.435C191.829 122.073 190.941 120.877 190.127 119.778C189.314 118.679 188.276 117.277 187.82 116.662C187.004 115.56 185.887 114.039 184.597 112.271C184.233 111.773 183.246 110.487 182.402 109.413C180.928 107.536 178.975 104.923 173.086 96.943C171.588 94.9122 169.959 92.7176 169.468 92.0662C168.976 91.4148 168.068 90.1921 167.449 89.3491L166.323 87.8164L178.087 87.7467L189.851 87.677L188.702 86.1453C188.07 85.3027 187.205 84.1427 186.78 83.5675C185.166 81.3818 182.129 77.278 180.49 75.067C179.553 73.8026 178.368 72.2037 177.857 71.5138C177.347 70.8241 176.603 69.8207 176.206 69.2843C175.151 67.8603 171.688 63.1829 170.791 61.969C170.366 61.3942 169.251 59.8894 168.314 58.6249C166.495 56.172 163.729 52.4335 161.044 48.8015C160.137 47.5753 159.088 46.1645 158.712 45.6664L158.028 44.7607L165.695 44.7249C169.912 44.7052 173.362 44.6414 173.362 44.5832C173.362 44.5249 172.319 43.0676 171.044 41.3445C166.167 34.7506 165.587 33.9682 163.883 31.6755C162.919 30.3783 160.897 27.6482 159.39 25.6087C152.532 16.326 147.729 9.83485 146.96 8.81127C146.499 8.19818 144.97 6.1446 143.562 4.24793C142.154 2.35125 140.973 0.79957 140.937 0.799988C140.901 0.800406 139.564 2.44627 137.967 4.45735Z" fill="#22B573"/>
<path fill-rule="evenodd" clip-rule="evenodd" d="M24.9995 201.05C24.9333 201.073 24.3924 201.314 23.7974 201.586C18.4186 204.044 13.1532 207.811 9.29714 211.96C4.53787 217.081 1.59827 222.761 0.396322 229.16C0.1538 230.451 -0.0535259 232.045 0.0123758 232.111C0.0331405 232.132 0.369303 232.092 0.759503 232.023C6.11205 231.077 12.2399 230.565 15.9151 230.757C18.7415 230.905 20.9529 231.284 22.4178 231.872L23.0028 232.107L22.1883 232.907C20.0258 235.031 17.7242 238.043 15.9827 241.027C11.4551 248.786 9.79694 257.457 11.1735 266.177C11.4034 267.633 11.683 269.006 11.7685 269.099C11.8016 269.135 12.3478 268.823 12.9823 268.406C18.8671 264.541 25.1776 261.866 30.0904 261.155C31.3136 260.978 33.1152 260.852 33.2002 260.937C33.2401 260.977 33.1951 261.155 33.0957 261.351C32.8702 261.795 32.1441 263.668 31.8188 264.645C30.0243 270.035 29.1374 276.024 29.4054 280.943C29.7628 287.505 31.4921 292.956 34.803 297.96C35.506 299.022 35.9009 299.542 35.9695 299.496C35.999 299.476 36.3074 299.042 36.6548 298.531C38.2517 296.18 39.7982 294.3 41.9131 292.14C45.2017 288.78 48.1739 286.558 51.7955 284.751C52.401 284.45 52.9434 284.202 53.0009 284.202C53.0826 284.202 53.1094 284.541 53.1235 285.752C53.1618 289.052 53.6037 292.799 54.355 296.193C56.3915 305.392 60.6526 312.735 66.6891 317.448C67.7054 318.241 69.2773 319.299 69.337 319.229C69.3657 319.195 69.4526 318.792 69.53 318.333C69.7483 317.041 70.3928 314.574 70.9644 312.843C72.5615 308.006 74.6078 304.269 77.3981 301.093C78.0457 300.355 79.7121 298.768 79.8382 298.768C79.8664 298.768 80.0261 299.139 80.1932 299.593C81.9922 304.479 84.9558 309.741 88.2375 313.878C93.2878 320.243 99.3804 324.333 106.01 325.809C106.582 325.937 107.063 326.027 107.08 326.01C107.097 325.993 107.062 325.297 107.003 324.464C106.864 322.51 106.862 316.64 107 314.902C107.333 310.691 108.073 307.266 109.179 304.812C109.602 303.874 109.827 303.486 109.899 303.571C109.93 303.607 110.255 304.161 110.621 304.803C113.603 310.028 117.477 315.471 121.357 319.891C122.607 321.315 125.658 324.356 126.979 325.493C131.811 329.657 136.589 332.081 141.009 332.611C142.124 332.745 143.414 332.762 143.414 332.643C143.414 332.597 143.347 332.425 143.265 332.261C142.684 331.099 141.971 328.086 141.718 325.726C141.562 324.267 141.585 320.324 141.76 318.688C142.216 314.412 143.231 310.337 144.976 305.769C145.272 304.994 145.541 304.312 145.574 304.253C145.615 304.179 145.791 304.367 146.139 304.856C148.436 308.086 152.38 312.265 155.953 315.256C160.986 319.468 166.166 322.58 171.795 324.773C172.75 325.145 174.458 325.735 174.49 325.703C174.502 325.691 174.441 325.067 174.356 324.316C174.038 321.526 173.972 316.958 174.207 314.057C174.474 310.759 175.059 307.769 175.908 305.363C176.268 304.342 176.931 302.797 177.01 302.793C177.034 302.792 177.276 303.093 177.548 303.461C178.957 305.371 181.811 308.15 184.241 309.978C191.69 315.583 200.509 318.344 210.304 318.139C211.443 318.115 212.393 318.077 212.416 318.054C212.438 318.031 212.291 317.739 212.088 317.403C211.551 316.515 210.757 314.978 210.194 313.735C208.291 309.538 207.143 305.392 206.712 301.151C206.585 299.907 206.541 295.992 206.652 295.817C206.693 295.752 207.013 295.87 207.713 296.21C208.784 296.73 209.181 296.903 210.999 297.638C215.741 299.553 221.466 300.933 226.032 301.261C227.498 301.366 231.062 301.365 232.374 301.259C235.484 301.008 238.718 300.249 241.569 299.101C242.557 298.703 244.552 297.727 245.016 297.414L245.24 297.263L244.775 296.914C243.247 295.766 241.023 293.782 239.429 292.144C234.946 287.541 232.403 283.211 231.916 279.354C231.861 278.923 231.838 278.549 231.864 278.523C231.89 278.497 232.681 278.52 233.621 278.574C236.724 278.754 241.42 278.566 244.742 278.13C252.674 277.09 258.969 274.748 263.713 271.072C264.895 270.157 267.038 268.019 267.835 266.96C268.161 266.528 268.413 266.162 268.395 266.147C268.377 266.131 267.948 265.982 267.441 265.815C266.451 265.49 264.748 264.867 263.933 264.532C262.172 263.808 261.868 263.669 260.141 262.8C255.185 260.306 251.457 257.228 249.66 254.146C249.479 253.837 249.321 253.535 249.307 253.477C249.29 253.405 249.728 253.222 250.685 252.904C252.336 252.354 254.241 251.639 255.696 251.025C267.515 246.028 275.387 239.186 278.121 231.534C278.439 230.646 278.905 228.929 278.905 228.647C278.905 228.503 278.835 228.499 277.282 228.553C275.673 228.608 272.742 228.514 271.009 228.351C266.235 227.903 261.815 226.721 258.782 225.082C257.973 224.645 256.618 223.776 256.618 223.695C256.618 223.663 256.771 223.552 256.958 223.447C258.772 222.436 261.568 220.456 263.684 218.684C265.049 217.541 265.39 217.226 266.76 215.847C271.04 211.538 273.7 207.06 274.784 202.339C274.934 201.684 275.057 201.113 275.057 201.072C275.057 200.992 25.2279 200.97 24.9995 201.05Z" fill="#666666"/>
<path fill-rule="evenodd" clip-rule="evenodd" d="M39.2799 155.052C38.5076 155.142 37.0479 155.473 36.2978 155.728C31.5645 157.342 28.2213 161.102 27.373 165.767C27.1666 166.902 27.1237 169.194 27.2875 170.342C27.684 173.123 28.8131 175.474 30.7017 177.453C32.7674 179.616 35.1989 180.899 38.4384 181.532C39.5645 181.753 42.0635 181.835 43.2909 181.693C46.8443 181.28 49.6626 179.972 51.9542 177.672C54.0651 175.553 55.3245 172.938 55.6454 170.008C55.7744 168.83 55.6875 166.58 55.4735 165.554C54.4938 160.859 51.1493 157.208 46.4354 155.687C44.8162 155.164 43.9945 155.043 41.8457 155.012C40.7654 154.996 39.6108 155.014 39.2799 155.052ZM70.0637 155.053C68.0934 155.279 65.7806 156.096 64.1287 157.149C61.1136 159.071 59.1629 161.875 58.3932 165.393C58.1337 166.579 58.0426 168.768 58.1973 170.103C58.5548 173.191 59.9338 175.94 62.1963 178.078C63.9912 179.774 66.5595 181.031 69.2647 181.539C70.1541 181.706 70.4968 181.726 72.3112 181.723C74.1879 181.719 74.4413 181.701 75.4003 181.508C76.8169 181.222 77.8596 180.879 79.0056 180.321C80.586 179.553 81.9179 178.561 82.8488 177.459C83.2215 177.018 83.2867 176.9 83.2004 176.82C83.1421 176.766 82.1065 175.826 80.899 174.732L78.7037 172.741L78.0529 173.379C77.3171 174.101 76.949 174.396 76.332 174.761C74.09 176.087 71.0126 176.064 68.6803 174.705C68.1286 174.384 67.2743 173.601 66.856 173.033C66.2795 172.25 65.7711 171.059 65.5698 170.02C65.427 169.283 65.4435 167.306 65.5986 166.56C65.9488 164.877 66.8548 163.361 68.0621 162.438C70.1442 160.846 73.2592 160.509 75.6631 161.617C76.5351 162.018 77.3238 162.577 78.0559 163.311L78.7096 163.967L81.0047 161.878L83.2999 159.789L82.9778 159.402C82.5251 158.86 81.6896 158.089 81.0189 157.595C79.3039 156.332 77.6303 155.637 75.1573 155.159C74.4068 155.015 71.0175 154.944 70.0637 155.053ZM150.559 155.056C146.909 155.502 143.466 157.388 141.385 160.082C139.608 162.383 138.776 164.728 138.643 167.807C138.433 172.66 140.597 176.949 144.547 179.513C145.919 180.404 147.709 181.105 149.632 181.503C150.607 181.706 150.822 181.721 152.724 181.724C154.544 181.727 154.878 181.706 155.771 181.537C158.845 180.954 161.33 179.65 163.183 177.648C163.516 177.289 163.788 176.969 163.788 176.939C163.788 176.908 162.759 175.952 161.501 174.813L159.215 172.743L158.635 173.337C157.903 174.087 157.285 174.544 156.408 174.984C155.43 175.475 154.659 175.662 153.406 175.711C151.768 175.776 150.497 175.469 149.201 174.696C146.954 173.356 145.734 170.641 145.998 167.565C146.283 164.233 148.209 161.922 151.339 161.155C152.394 160.896 153.929 160.916 154.993 161.201C156.373 161.571 157.37 162.154 158.517 163.263L159.237 163.96L160.53 162.788C162.885 160.655 163.748 159.858 163.774 159.79C163.802 159.718 163.214 159.068 162.518 158.401C161.805 157.718 160.759 157.01 159.659 156.467C158.462 155.877 157.498 155.543 156.131 155.247C155.271 155.06 154.959 155.035 153.165 155.011C152.063 154.995 150.89 155.016 150.559 155.056ZM176.936 155.056C173.951 155.422 171.064 156.759 168.994 158.735C166.739 160.886 165.378 163.7 165.075 166.836C164.66 171.141 165.931 174.908 168.759 177.746C169.795 178.786 170.805 179.513 172.166 180.198C173.385 180.812 174.493 181.19 175.984 181.499C176.996 181.709 177.175 181.722 179.141 181.721C181.077 181.721 181.303 181.705 182.308 181.505C185.16 180.937 187.413 179.781 189.263 177.934C189.759 177.439 190.165 177.001 190.165 176.961C190.165 176.921 189.134 175.955 187.874 174.815L185.583 172.742L184.978 173.357C184.214 174.134 183.66 174.545 182.785 174.984C181.789 175.484 181.037 175.663 179.742 175.71C178.866 175.742 178.515 175.719 177.897 175.591C174.415 174.868 172.336 172.151 172.343 168.33C172.349 164.635 174.335 161.984 177.716 161.155C178.771 160.896 180.306 160.916 181.369 161.201C182.751 161.571 183.847 162.224 184.975 163.348L185.599 163.969L186.058 163.555C186.31 163.328 186.715 162.956 186.958 162.729C187.2 162.502 188.012 161.765 188.762 161.091C189.511 160.417 190.138 159.828 190.155 159.782C190.172 159.736 189.757 159.276 189.233 158.76C187.377 156.931 185.313 155.853 182.508 155.248C181.651 155.063 181.327 155.037 179.542 155.011C178.439 154.995 177.267 155.016 176.936 155.056ZM2 168.366V181.286H5.60776H9.21552V177.915V174.544L12.4425 174.503C15.9983 174.458 16.6022 174.393 18.3552 173.873C21.3347 172.99 23.5312 171.069 24.5501 168.457C25.2856 166.571 25.3262 163.812 24.6478 161.81C23.7194 159.07 21.5138 157.051 18.4036 156.094C18.0996 156.001 17.4141 155.831 16.8803 155.716L15.9099 155.508L8.95496 155.477L2 155.446V168.366ZM89.195 156.602C89.0689 159.532 88.9812 161.91 88.9063 164.428C88.7502 169.68 88.4332 172.005 87.6538 173.613C87.2218 174.505 86.7551 174.982 86.0567 175.247C85.6515 175.401 85.4697 175.423 84.8483 175.392L84.1168 175.355L84.0624 176.208C84.0324 176.678 83.9367 177.999 83.8496 179.145C83.7626 180.291 83.7055 181.242 83.7226 181.26C83.7397 181.277 84.1104 181.365 84.5465 181.455C85.7039 181.694 87.7044 181.752 88.5913 181.572C90.7007 181.143 92.0169 180.112 93.1194 178.026C94.4491 175.51 95.0244 171.748 95.2786 163.905C95.3037 163.13 95.3452 162.216 95.3709 161.873L95.4175 161.249H99.0971H102.777V171.268V181.286H106.344H109.912V168.371V155.455H99.5782H89.2443L89.195 156.602ZM115.444 168.371V181.286H125.786H136.128V178.47V175.653H129.394H122.659V173.279V170.905H128.393H134.126L134.105 168.19L134.084 165.474L128.372 165.453L122.659 165.432V163.261V161.089L129.133 161.068L135.607 161.048L135.628 158.251L135.649 155.455H125.547H115.444V168.371ZM193.452 168.371V181.286H197.059H200.667V176.257V171.227H205.678H210.689V176.257V181.286H214.297H217.904V168.371V155.455H214.297H210.69L210.669 160.303L210.649 165.152H205.678H200.707L200.687 160.303L200.666 155.455H197.059H193.452V168.371ZM232.035 155.998C231.901 156.297 231.521 157.157 231.19 157.909C229.559 161.619 228.985 162.926 228.448 164.146C227.667 165.921 226.755 167.996 226.033 169.638C224.844 172.343 224.226 173.75 223.645 175.07C223.318 175.811 222.701 177.214 222.274 178.188C221.846 179.162 221.374 180.235 221.224 180.572C221.074 180.91 220.951 181.209 220.951 181.237C220.951 181.265 222.614 181.278 224.646 181.267L228.341 181.246L229.352 178.731L230.363 176.215L235.806 176.236L241.25 176.257L242.049 178.228C242.488 179.313 242.94 180.444 243.052 180.743L243.257 181.286H247.052H250.847L250.617 180.783C250.49 180.507 249.677 178.669 248.809 176.699C247.941 174.73 246.751 172.032 246.165 170.704C245.579 169.377 244.677 167.331 244.161 166.158C242.192 161.687 241.679 160.522 241.074 159.157C240.731 158.382 240.224 157.232 239.948 156.602L239.447 155.455H235.863H232.279L232.035 155.998ZM253.822 168.375V181.294L261.177 181.266C267.704 181.24 268.628 181.221 269.375 181.097C271.012 180.825 272.443 180.356 273.464 179.757C276.263 178.116 277.481 175.644 277.221 172.131C277.083 170.26 276.527 168.994 275.308 167.768C274.091 166.546 272.585 165.845 270.337 165.458C269.717 165.351 268.773 165.32 265.266 165.293L260.957 165.26V163.174V161.088H268.132H275.308V158.272V155.455H264.565H253.822V168.375ZM43.2074 161.183C44.4077 161.497 45.3278 162.009 46.2043 162.852C47.9098 164.492 48.689 166.997 48.3055 169.607C47.8383 172.787 45.8018 175.016 42.8136 175.618C41.9515 175.792 40.3899 175.739 39.5608 175.509C37.1179 174.83 35.3868 173.003 34.7032 170.382C34.5401 169.757 34.515 169.477 34.5194 168.33C34.5239 167.152 34.5485 166.914 34.7383 166.214C35.1827 164.577 36.0246 163.295 37.3094 162.3C38.1182 161.674 39.4455 161.145 40.5589 161.006C41.287 160.915 42.4894 160.995 43.2074 161.183ZM14.9597 161.359C16.3962 161.726 17.2639 162.504 17.6458 163.766C17.8693 164.504 17.8288 165.809 17.561 166.5C17.1135 167.654 16.0879 168.413 14.6272 168.671C14.3626 168.718 13.0458 168.76 11.7009 168.765L9.2556 168.773L9.23476 164.961L9.21391 161.15L11.8404 161.191C13.8519 161.223 14.5822 161.262 14.9597 161.359ZM235.885 162.798C235.907 162.853 236.632 164.664 237.497 166.822C238.362 168.98 239.07 170.781 239.07 170.825C239.07 170.92 232.605 170.94 232.55 170.845C232.506 170.772 235.721 162.7 235.794 162.698C235.823 162.698 235.863 162.743 235.885 162.798ZM267.793 170.612C269.325 171.047 270.014 171.955 269.915 173.406C269.847 174.403 269.464 175.036 268.635 175.524C267.88 175.968 267.597 176 264.144 176.036L260.957 176.069V173.299C260.957 171.776 260.984 170.502 261.017 170.469C261.05 170.435 262.484 170.424 264.204 170.444C266.774 170.474 267.413 170.504 267.793 170.612Z" fill="#8C6239"/>
</svg>
