<svg width="96" height="96" viewBox="0 0 96 96" fill="none" xmlns="http://www.w3.org/2000/svg">
<path d="M48 73.3182C60.9028 73.3182 71.4 62.8576 71.4 50C71.4 37.1424 60.9028 26.6818 48 26.6818C35.0972 26.6818 24.6 37.1424 24.6 50C24.6 62.8576 35.0972 73.3182 48 73.3182ZM48 28.4091C59.947 28.4091 69.6667 38.0948 69.6667 50C69.6667 61.9052 59.947 71.5909 48 71.5909C36.053 71.5909 26.3333 61.9052 26.3333 50C26.3333 38.0948 36.053 28.4091 48 28.4091ZM83.5333 77.6364H74.4808L76.5301 75.7485C76.8699 75.4353 76.9028 74.9116 76.6054 74.5585L72.6974 69.9239L80.3313 69.4299C80.6205 69.4113 80.8812 69.2498 81.0259 68.9998C81.0259 68.9998 83.624 64.5124 83.6259 64.5089C83.8623 64.1006 83.7169 63.5639 83.308 63.329L78.0416 60.3046L85.0512 57.2425C85.3168 57.1264 85.5066 56.8858 85.5568 56.6011L86.458 51.4969C86.5408 51.0276 86.2264 50.5798 85.7555 50.4969L79.7632 49.439L85.3013 44.173C85.5116 43.9732 85.6073 43.682 85.5565 43.3972L84.6465 38.2936C84.5628 37.8239 84.1119 37.5106 83.6418 37.5942L77.6598 38.6515L81.0519 31.8144C81.1802 31.5557 81.1704 31.2501 81.0257 31.0002L78.4257 26.5093C78.1865 26.0961 77.657 25.9545 77.2422 26.1927L71.9732 29.2187L72.8158 21.6472C72.8479 21.3601 72.7335 21.076 72.5114 20.8904C72.5114 20.8904 68.5299 17.5611 68.5247 17.5566C68.1623 17.2537 67.6063 17.3031 67.3033 17.6637L63.4027 22.3046L61.5905 14.8958C61.5219 14.6151 61.317 14.3873 61.0447 14.2886L56.1571 12.5182C55.7083 12.3553 55.2107 12.5862 55.0467 13.0341L52.9639 18.7296L48.7212 12.3848C48.5604 12.1444 48.2898 12 48 12H42.8C42.3214 12 41.9333 12.3867 41.9333 12.8636V18.9219L35.7644 14.4044C35.5304 14.2332 35.226 14.1898 34.9534 14.2893L30.0744 16.0686C29.6256 16.2322 29.3944 16.727 29.5577 17.1746L31.6339 22.8687L24.2892 20.7232C24.0112 20.6422 23.7106 20.7048 23.4884 20.8904C23.4884 20.8904 19.5068 24.2194 19.5011 24.2243C19.14 24.5262 19.092 25.0825 19.3946 25.4415L23.3024 30.0763L15.6685 30.5703C15.3794 30.5889 15.1188 30.7504 14.9739 31.0005C14.9739 31.0005 12.3774 35.4856 12.3739 35.4914C12.1379 35.8994 12.2836 36.4369 12.6918 36.6713L17.958 39.6958L10.9488 42.7575C10.6832 42.8734 10.4934 43.1142 10.4432 43.3989L9.54201 48.5031C9.45899 48.9728 9.77376 49.4205 10.2451 49.5032L16.2299 50.5546L10.6976 55.8276C10.4881 56.0273 10.3926 56.3184 10.4433 56.6028L11.3533 61.7064C11.4371 62.1761 11.8869 62.4889 12.3582 62.4056L18.3328 61.3485L14.9476 68.1863C14.8195 68.445 14.8295 68.7508 14.9745 69.0005L17.5745 73.4826C17.8137 73.8951 18.343 74.0367 18.7575 73.7987L24.1301 70.7133L23.7763 77.6364H12.4667C10.5551 77.6364 9 79.1861 9 81.0909V87.1364C9 87.6134 9.38809 88 9.86667 88H86.1333C86.6121 88 87 87.6134 87 87.1364V81.0909C87 79.1861 85.4449 77.6364 83.5333 77.6364ZM18.6418 71.8714L16.7071 68.5359C16.7071 68.5359 20.6355 60.601 20.6451 60.5816C20.9531 59.9593 20.4031 59.2285 19.7163 59.3492L12.9083 60.5538L12.2311 56.7559C12.2311 56.7559 18.647 50.6406 18.6644 50.6241C19.167 50.1449 18.9015 49.2699 18.2158 49.1495L11.3989 47.952L12.0696 44.1535C12.0696 44.1535 20.201 40.6014 20.2242 40.5912C20.8647 40.3114 20.9116 39.398 20.3091 39.052L14.3085 35.6058L16.2436 32.2635C16.2436 32.2635 25.1044 31.6902 25.1238 31.6888C25.818 31.6439 26.1811 30.8052 25.7312 30.2714L21.2793 24.9915L24.2467 22.5105C24.2467 22.5105 32.7718 25.0007 32.7891 25.0057C33.4582 25.201 34.086 24.5362 33.8473 23.8819L31.4817 17.3939L35.1123 16.07C35.1123 16.07 42.2793 21.3183 42.2866 21.3236C42.8491 21.7356 43.6665 21.3235 43.6665 20.6277V13.7273H47.5358C47.5358 13.7273 52.4597 21.0912 52.4704 21.1072C52.8577 21.6864 53.7675 21.5769 54.0058 20.924L56.3784 14.4363L60.0163 15.7541C60.0163 15.7541 62.1197 24.3528 62.1246 24.373C62.2898 25.0487 63.1842 25.2549 63.6309 24.7231L68.0749 19.4356L71.0415 21.9164C71.0415 21.9164 70.0639 30.7003 70.0615 30.7233C69.9851 31.4109 70.7507 31.9148 71.3558 31.5669L77.3571 28.1203L79.2924 31.4633C79.2924 31.4633 75.3598 39.3895 75.3459 39.4175C75.0376 40.0392 75.5867 40.7726 76.2741 40.6508L83.091 39.446L83.7682 43.2434C83.7682 43.2434 77.3393 49.3561 77.3277 49.3671C76.8234 49.8466 77.0891 50.7213 77.7747 50.8426L84.6004 52.0475L83.9297 55.8466C83.9297 55.8466 75.7926 59.4012 75.7748 59.409C75.1355 59.6881 75.0851 60.6006 75.69 60.9481L81.6906 64.3942L79.7557 67.7365C79.7557 67.7365 70.893 68.31 70.8755 68.3112C70.1827 68.3561 69.8173 69.1938 70.2681 69.7286L74.7462 75.0394L71.9275 77.6364H25.5119C25.5119 77.6364 25.9414 69.2325 25.9421 69.2166C25.9763 68.5488 25.232 68.0868 24.6439 68.4245L18.6418 71.8714ZM85.2667 86.2727H10.7333V81.0909C10.7333 80.1385 11.5109 79.3636 12.4667 79.3636H83.5333C84.4891 79.3636 85.2667 80.1385 85.2667 81.0909V86.2727ZM48 60.3636C53.7346 60.3636 58.4 55.7145 58.4 50C58.4 44.2855 53.7346 39.6364 48 39.6364C42.2654 39.6364 37.6 44.2855 37.6 50C37.6 55.7145 42.2654 60.3636 48 60.3636ZM48 41.3636C52.7788 41.3636 56.6667 45.2379 56.6667 50C56.6667 54.7621 52.7788 58.6364 48 58.6364C43.2212 58.6364 39.3333 54.7621 39.3333 50C39.3333 45.2379 43.2212 41.3636 48 41.3636Z" fill="white" stroke="white" stroke-width="0.8"/>
</svg>
