<svg width="81" height="81" viewBox="0 0 81 81" fill="none" xmlns="http://www.w3.org/2000/svg">
<g clip-path="url(#clip0_266_336)">
<path d="M6.07984 57.385C5.593 56.4312 5.14255 55.4463 4.73972 54.4574C4.69112 54.336 4.61901 54.2254 4.52754 54.132C4.43607 54.0386 4.32703 53.9642 4.2067 53.913C4.08638 53.8619 3.95713 53.835 3.82639 53.834C3.69565 53.833 3.56599 53.8578 3.44488 53.9071C3.32376 53.9563 3.21358 54.029 3.12065 54.121C3.02772 54.213 2.95389 54.3224 2.9034 54.443C2.8529 54.5636 2.82674 54.693 2.82642 54.8237C2.8261 54.9545 2.85162 55.084 2.90151 55.2048C3.32485 56.2466 3.79978 57.2831 4.31241 58.2872C4.37165 58.4033 4.45317 58.5065 4.55231 58.5911C4.65146 58.6756 4.76628 58.7398 4.89023 58.78C5.01418 58.8202 5.14483 58.8355 5.27472 58.8252C5.40461 58.8149 5.53119 58.7791 5.64724 58.7198C5.76329 58.6606 5.86654 58.5791 5.95108 58.4799C6.03563 58.3808 6.09982 58.266 6.13999 58.142C6.18016 58.0181 6.19553 57.8874 6.1852 57.7575C6.17488 57.6276 6.13908 57.5011 6.07984 57.385Z" fill="white" stroke="white" stroke-width="0.8"/>
<path d="M3.6538 51.4255C3.33498 50.4022 3.05849 49.3545 2.82896 48.3113C2.76961 48.0574 2.61264 47.837 2.39202 47.6978C2.1714 47.5587 1.90488 47.5121 1.65012 47.568C1.39537 47.6239 1.17287 47.7779 1.03078 47.9966C0.888686 48.2153 0.838428 48.4812 0.89088 48.7367C1.13165 49.8347 1.42336 50.9373 1.75806 52.0148C1.83621 52.2662 2.01103 52.4763 2.24405 52.5988C2.47708 52.7213 2.74922 52.7462 3.00061 52.668C3.252 52.5899 3.46205 52.4151 3.58455 52.182C3.70705 51.949 3.73196 51.6769 3.6538 51.4255Z" fill="white" stroke="white" stroke-width="0.8"/>
<path d="M1.41732 46.2534C1.67818 46.219 1.91468 46.0824 2.07483 45.8736C2.23497 45.6648 2.30563 45.401 2.27127 45.1401C2.13104 44.0818 2.03447 43.0036 1.98287 41.9301C1.97834 41.7994 1.9477 41.671 1.89276 41.5523C1.83782 41.4337 1.75968 41.3272 1.66297 41.2393C1.56625 41.1513 1.4529 41.0836 1.3296 41.0401C1.2063 40.9966 1.07554 40.9783 0.94504 40.9861C0.814868 40.9923 0.687191 41.0241 0.569301 41.0797C0.451412 41.1352 0.345619 41.2134 0.257966 41.3099C0.170313 41.4063 0.102516 41.5191 0.0584487 41.6417C0.0143809 41.7643 -0.00509479 41.8945 0.00113403 42.0246C0.0547124 43.1538 0.156577 44.2888 0.303422 45.3981C0.320456 45.5273 0.362785 45.6519 0.42799 45.7648C0.493196 45.8777 0.58 45.9766 0.683444 46.0559C0.786888 46.1352 0.904943 46.1933 1.03086 46.227C1.15679 46.2606 1.28811 46.2692 1.41732 46.252V46.2534Z" fill="white" stroke="white" stroke-width="0.8"/>
<path d="M18.762 71.7104C17.875 71.1111 17.0025 70.4682 16.1684 69.7961C16.0669 69.7145 15.9503 69.6536 15.8252 69.617C15.7001 69.5805 15.5691 69.5689 15.4396 69.5829C15.31 69.597 15.1845 69.6365 15.0702 69.699C14.9559 69.7616 14.8551 69.8461 14.7734 69.9476C14.6918 70.0492 14.6309 70.1658 14.5943 70.2908C14.5578 70.4159 14.5462 70.5469 14.5602 70.6765C14.5743 70.806 14.6137 70.9315 14.6763 71.0458C14.7389 71.1601 14.8234 71.261 14.9249 71.3426C15.802 72.0477 16.7188 72.7257 17.6528 73.3548C17.8705 73.5022 18.1379 73.5571 18.3961 73.5075C18.6543 73.4579 18.8823 73.3078 19.0299 73.0902C19.1032 72.9821 19.1543 72.8606 19.1805 72.7327C19.2067 72.6047 19.2073 72.4729 19.1824 72.3447C19.1576 72.2165 19.1076 72.0945 19.0355 71.9856C18.9633 71.8768 18.8704 71.7833 18.762 71.7104Z" fill="white" stroke="white" stroke-width="0.8"/>
<path d="M7.6636 60.1935C7.59619 60.08 7.50681 59.9811 7.4007 59.9026C7.29459 59.8241 7.17388 59.7675 7.04564 59.7363C6.9174 59.705 6.78421 59.6996 6.65387 59.7205C6.52353 59.7413 6.39865 59.7879 6.28657 59.8577C6.17448 59.9274 6.07742 60.0187 6.00109 60.1264C5.92476 60.2341 5.87068 60.3559 5.84202 60.4848C5.81337 60.6136 5.81071 60.7469 5.8342 60.8768C5.8577 61.0067 5.90688 61.1306 5.97886 61.2412C6.57417 62.1957 7.21446 63.1376 7.88783 64.0412C7.96571 64.1457 8.0634 64.2338 8.17534 64.3006C8.28727 64.3673 8.41126 64.4114 8.54021 64.4302C8.66917 64.449 8.80057 64.4423 8.92692 64.4103C9.05326 64.3783 9.17207 64.3218 9.27657 64.2439C9.38107 64.1661 9.46921 64.0684 9.53595 63.9564C9.60269 63.8445 9.64673 63.7205 9.66556 63.5916C9.68438 63.4626 9.67762 63.3312 9.64567 63.2049C9.61371 63.0785 9.55718 62.9597 9.47931 62.8552C8.84034 61.9927 8.22849 61.0977 7.6636 60.1935Z" fill="white" stroke="white" stroke-width="0.8"/>
<path d="M11.5104 65.352C11.336 65.155 11.0904 65.0353 10.8277 65.0194C10.5651 65.0035 10.3068 65.0925 10.1098 65.267C9.91279 65.4415 9.79315 65.687 9.77721 65.9497C9.76127 66.2124 9.85033 66.4706 10.0248 66.6676C10.7729 67.5117 11.5647 68.3325 12.3776 69.1084C12.4711 69.2024 12.5824 69.2766 12.705 69.3269C12.8276 69.3771 12.959 69.4022 13.0915 69.4009C13.2239 69.3995 13.3548 69.3716 13.4763 69.3188C13.5978 69.266 13.7076 69.1894 13.799 69.0936C13.8905 68.9977 13.9618 68.8845 14.0088 68.7606C14.0558 68.6367 14.0775 68.5047 14.0726 68.3723C14.0677 68.2399 14.0364 68.1098 13.9805 67.9897C13.9245 67.8696 13.8451 67.762 13.7468 67.6731C12.9736 66.9335 12.2215 66.1523 11.5104 65.352Z" fill="white" stroke="white" stroke-width="0.8"/>
<path d="M40.0505 0C33.6199 0.00629764 27.2847 1.55619 21.5774 4.5194C15.8701 7.48261 10.9576 11.7726 7.25262 17.0287C7.10105 17.2438 7.04116 17.5104 7.08613 17.7697C7.1311 18.029 7.27724 18.2599 7.4924 18.4115C7.70757 18.563 7.97413 18.6229 8.23346 18.578C8.49278 18.533 8.72362 18.3868 8.87519 18.1717C13.0358 12.2626 18.7912 7.65869 25.4697 4.89728C32.1483 2.13587 39.4744 1.33086 46.5932 2.57618C53.712 3.8215 60.3298 7.06579 65.6743 11.9304C71.0187 16.7951 74.8694 23.0794 76.777 30.05C78.6845 37.0206 78.5701 44.39 76.4473 51.2981C74.3244 58.2062 70.2807 64.368 64.7879 69.0645C59.295 73.761 52.5798 76.7985 45.4258 77.8223C38.2718 78.8462 30.9741 77.8143 24.3845 74.8471C23.4121 74.4078 22.4438 73.921 21.5071 73.3971C21.3933 73.3325 21.2678 73.291 21.1379 73.275C21.008 73.2591 20.8762 73.269 20.7501 73.3042C20.624 73.3394 20.5062 73.3992 20.4033 73.4802C20.3005 73.5611 20.2146 73.6617 20.1508 73.7759C20.087 73.8902 20.0464 74.016 20.0314 74.146C20.0163 74.2761 20.0272 74.4078 20.0633 74.5336C20.0995 74.6594 20.1601 74.7769 20.2418 74.8791C20.3235 74.9814 20.4247 75.0665 20.5394 75.1295C21.5256 75.6798 22.5443 76.1938 23.5682 76.6555C29.0209 79.113 34.9542 80.3197 40.9336 80.1871C46.913 80.0545 52.787 78.586 58.1254 75.8892C63.4637 73.1924 68.1312 69.3356 71.7859 64.6012C75.4406 59.8669 77.9899 54.3749 79.2472 48.5277C80.5044 42.6805 80.4378 36.6261 79.052 30.8079C77.6663 24.9898 74.9966 19.5554 71.2386 14.9027C67.4805 10.25 62.7292 6.49684 57.3328 3.91825C51.9363 1.33965 46.0314 0.000876059 40.0505 0Z" fill="white" stroke="white" stroke-width="0.8"/>
<path d="M7.55116 20.9755C6.89621 20.9743 6.26298 20.7405 5.76444 20.3157C5.2659 19.891 4.93446 19.3029 4.82925 18.6565L4.00374 13.5308C3.96923 13.2744 4.03626 13.0146 4.19053 12.8069C4.34481 12.5991 4.57412 12.4599 4.82959 12.4188C5.08506 12.3778 5.34646 12.4381 5.55806 12.587C5.76967 12.7359 5.91473 12.9616 5.96233 13.2159L6.78982 18.3409C6.8236 18.5431 6.93576 18.7238 7.10195 18.8438C7.26814 18.9638 7.47496 19.0134 7.6775 18.9819L12.8025 18.1564C13.0589 18.1219 13.3187 18.1889 13.5264 18.3432C13.7342 18.4975 13.8734 18.7268 13.9145 18.9822C13.9555 19.2377 13.8952 19.4991 13.7463 19.7107C13.5974 19.9223 13.3717 20.0674 13.1174 20.115L7.99236 20.9405C7.84647 20.964 7.69893 20.9757 7.55116 20.9755Z" fill="white" stroke="white" stroke-width="0.8"/>
<path d="M65.6757 23.1471L41.5674 10.4424C41.1101 10.2006 40.6007 10.0742 40.0834 10.0742C39.5662 10.0742 39.0567 10.2006 38.5994 10.4424L14.4898 23.1471C13.9765 23.4165 13.5467 23.8214 13.2472 24.3178C12.9476 24.8142 12.7897 25.3831 12.7905 25.9629V54.2239C12.7896 54.8037 12.9474 55.3728 13.247 55.8693C13.5466 56.3659 13.9764 56.7708 14.4898 57.0404L38.5994 69.7451C39.0569 69.9862 39.5663 70.1122 40.0834 70.1122C40.6006 70.1122 41.1099 69.9862 41.5674 69.7451L65.6757 57.0404C66.1893 56.7709 66.6192 56.366 66.9189 55.8695C67.2186 55.3729 67.3766 54.8038 67.3757 54.2239V25.9629C67.3765 25.3831 67.2184 24.8141 66.9188 24.3177C66.6191 23.8213 66.1892 23.4164 65.6757 23.1471ZM30.6778 31.287C30.1514 31.5513 29.7092 31.9571 29.4007 32.4588C29.0923 32.9606 28.9298 33.5384 28.9315 34.1273V45.4648C28.9338 45.486 28.9284 45.5074 28.9162 45.525C28.9041 45.5426 28.8861 45.5553 28.8654 45.5607C28.8468 45.5711 28.825 45.5744 28.8042 45.5699C28.7833 45.5654 28.7649 45.5534 28.7523 45.5362L26.584 43.2727C26.3363 43.0165 26.0275 42.8274 25.6866 42.7233C25.3457 42.6191 24.984 42.6033 24.6353 42.6774L23.2205 42.9823C23.2054 42.9855 23.1898 42.9852 23.1748 42.9816C23.1599 42.978 23.1459 42.9711 23.134 42.9614C23.122 42.9517 23.1123 42.9395 23.1057 42.9256C23.099 42.9117 23.0955 42.8965 23.0954 42.8811V30.1705C23.0945 29.9486 23.1556 29.731 23.2718 29.542C23.3879 29.353 23.5546 29.2002 23.7529 29.1009L48.7297 16.4597L54.2384 19.3628L30.6778 31.287ZM39.5242 12.1972C39.6966 12.1064 39.8886 12.059 40.0834 12.059C40.2783 12.059 40.4703 12.1064 40.6427 12.1972L46.5773 15.3246L22.8586 27.3301C22.6181 27.4528 22.3942 27.6057 22.1925 27.7852L15.945 24.6228L39.5242 12.1972ZM39.0909 67.76L15.4152 55.2842C15.2221 55.183 15.0603 55.0309 14.9474 54.8443C14.8345 54.6578 14.7749 54.4439 14.7749 54.2258V26.2546L21.1911 29.5011C21.1413 29.7208 21.1152 29.9452 21.113 30.1705V42.8791C21.1131 43.1906 21.1828 43.498 21.3171 43.779C21.4513 44.06 21.6468 44.3074 21.889 44.5031C22.1313 44.6988 22.4142 44.8379 22.7172 44.9101C23.0201 44.9823 23.3353 44.9858 23.6398 44.9204L25.0547 44.6161C25.0721 44.6114 25.0904 44.6117 25.1076 44.617C25.1248 44.6222 25.1402 44.6323 25.1519 44.6459L27.3215 46.9094C27.6098 47.2103 27.9815 47.4181 28.3888 47.5059C28.7961 47.5938 29.2204 47.5578 29.6071 47.4025C29.9937 47.2471 30.3251 46.9797 30.5584 46.6345C30.7918 46.2893 30.9165 45.8821 30.9166 45.4655V34.4243L38.6471 38.3362C38.7903 38.4077 38.9389 38.4679 39.0916 38.5161L39.0909 67.76ZM39.5427 36.5661L32.0926 32.7958L56.3908 20.4972L64.2218 24.6234L40.6255 36.5668C40.4575 36.6513 40.2721 36.6953 40.0841 36.6953C39.8961 36.6953 39.7107 36.6513 39.5427 36.5668V36.5661ZM65.3913 54.2232C65.3912 54.4412 65.3315 54.655 65.2186 54.8416C65.1058 55.0281 64.9441 55.1803 64.751 55.2815L41.0753 67.7613V38.5168C41.2288 38.4682 41.3783 38.4078 41.5224 38.3362L65.3913 26.2553V54.2232Z" fill="white" stroke="white" stroke-width="0.8"/>
</g>
<defs>
<clipPath id="clip0_266_336">
<rect width="80.1432" height="80.197" fill="white"/>
</clipPath>
</defs>
</svg>
