<svg width="104" height="104" viewBox="0 0 104 104" fill="none" xmlns="http://www.w3.org/2000/svg">
<path d="M84.1952 44.2939H77.6477L79.6204 21.6436C79.6241 21.6025 79.6247 21.5621 79.6249 21.5217C79.6249 21.5182 79.6253 21.515 79.6253 21.5115C79.6253 21.5109 79.6253 21.5105 79.6253 21.5099C79.6253 20.8934 79.2534 20.35 78.7068 20.1138C78.7021 20.1118 78.6976 20.1093 78.693 20.1073C78.659 20.0931 78.6239 20.0809 78.5886 20.0691C78.5754 20.0649 78.5628 20.0596 78.5496 20.0555C78.5207 20.0468 78.4911 20.0399 78.4616 20.0328C78.4409 20.0279 78.421 20.022 78.4001 20.0179C78.3743 20.0129 78.3475 20.0096 78.321 20.0058C78.2963 20.0021 78.2719 19.9978 78.2469 19.9956C78.2426 19.9952 78.2388 19.9944 78.2345 19.994C78.2077 19.9915 78.1813 19.9919 78.1547 19.9909C78.1368 19.9903 78.1193 19.9883 78.1015 19.9883H78.0824C78.0807 19.9883 78.0791 19.9883 78.0777 19.9883H46.9241C46.0831 19.9883 45.4006 20.6708 45.4006 21.5117C45.4006 22.3506 46.0831 23.0352 46.9241 23.0352H76.4409L73.4091 57.8459C73.4087 57.8485 73.4087 57.8511 73.4082 57.8538L72.6433 66.6371H19.7069L20.5923 57.4969H30.6716C31.5131 57.4969 32.195 56.8148 32.195 55.9734C32.195 55.1321 31.5131 54.45 30.6716 54.45H20.8876L22.7572 35.1541H38.7991C39.6406 35.1541 40.3225 34.472 40.3225 33.6306C40.3225 32.7893 39.6406 32.1072 38.7991 32.1072H23.0525L23.9317 23.0352H40.8303C41.6692 23.0352 42.3538 22.3506 42.3538 21.5117C42.3538 20.6708 41.6692 19.9883 40.8303 19.9883H22.549C22.5482 19.9883 22.5476 19.9885 22.5468 19.9885C21.8311 19.9883 21.2104 20.492 21.0603 21.1904C21.0593 21.1955 21.0574 21.2003 21.0564 21.2054C21.0487 21.2434 21.0436 21.2822 21.0386 21.3212C21.0371 21.3336 21.0345 21.3454 21.0333 21.3578C21.0331 21.3602 21.0325 21.3624 21.0323 21.3649L19.9914 32.1072H1.52344C0.681893 32.1072 0 32.7893 0 33.6306C0 34.472 0.681893 35.1541 1.52344 35.1541H19.6961L17.8265 54.45H12.3911C11.5495 54.45 10.8676 55.1321 10.8676 55.9734C10.8676 56.8148 11.5495 57.4969 12.3911 57.4969H17.5314L16.5133 68.0027C16.5131 68.0044 16.5131 68.006 16.5129 68.0074L14.9389 84.2532C14.9387 84.2551 14.9385 84.2571 14.9383 84.2587L14.9377 84.2646C14.9356 84.2857 14.9358 84.3064 14.9346 84.3276C14.9332 84.3556 14.9304 84.383 14.9304 84.4115C14.9304 84.4127 14.9306 84.4139 14.9306 84.4153C14.9306 84.4545 14.9334 84.4931 14.9362 84.5317C14.9375 84.5441 14.9371 84.5567 14.9385 84.5689C14.9425 84.6083 14.9492 84.6471 14.9564 84.6857C14.9584 84.6971 14.9594 84.7086 14.9616 84.7198C14.9675 84.749 14.9759 84.7773 14.9836 84.8059C14.9889 84.826 14.9931 84.8465 14.9992 84.8663C15.001 84.8717 15.0035 84.877 15.0051 84.8827C15.0788 85.1094 15.204 85.3129 15.3673 85.4791C15.3703 85.4821 15.3728 85.4856 15.3758 85.4884C15.3921 85.5047 15.4097 85.5193 15.4268 85.5347C15.5318 85.631 15.6504 85.7127 15.7802 85.7767C15.8072 85.7901 15.8339 85.8041 15.8615 85.8157C15.8698 85.8193 15.8787 85.8218 15.8873 85.825C15.9255 85.8402 15.9639 85.8549 16.0035 85.8673C16.0071 85.8683 16.0106 85.8689 16.0142 85.8701C16.0593 85.8835 16.1048 85.8953 16.1513 85.9048C16.1574 85.9061 16.1637 85.9065 16.1696 85.9077C16.2139 85.916 16.2584 85.9231 16.3037 85.9276C16.3047 85.9276 16.3055 85.9278 16.3065 85.928C16.3565 85.9329 16.4061 85.9353 16.4552 85.9353C16.4558 85.9353 16.4566 85.9351 16.4575 85.9351H23.2394C23.9883 91.6131 28.8563 96.0107 34.7357 96.0107C40.6148 96.0107 45.4827 91.6131 46.2316 85.9351H70.6675C71.4166 91.6131 76.2843 96.0107 82.1636 96.0107C88.0426 96.0107 92.911 91.6131 93.6601 85.9351H100.444C100.445 85.9351 100.446 85.9353 100.447 85.9353C100.498 85.9353 100.548 85.9323 100.597 85.9274C100.606 85.9266 100.615 85.9247 100.624 85.9237C100.663 85.9191 100.703 85.9136 100.741 85.9058C100.758 85.9026 100.774 85.8981 100.79 85.8943C100.82 85.8874 100.85 85.8801 100.88 85.8713C100.899 85.8654 100.919 85.8585 100.938 85.8518C100.963 85.8433 100.988 85.8344 101.013 85.8244C101.034 85.8161 101.054 85.8069 101.075 85.7978C101.097 85.7874 101.119 85.7769 101.141 85.7657C101.162 85.7551 101.182 85.7442 101.202 85.7328C101.222 85.7206 101.243 85.708 101.264 85.695C101.283 85.6828 101.302 85.6704 101.32 85.6574C101.341 85.643 101.361 85.6278 101.381 85.6123C101.397 85.5991 101.414 85.5861 101.43 85.5723C101.451 85.5546 101.471 85.5362 101.491 85.5173C101.505 85.5041 101.519 85.4911 101.533 85.4773C101.554 85.4557 101.574 85.433 101.594 85.41C101.605 85.3976 101.616 85.3856 101.626 85.3731C101.649 85.3454 101.669 85.317 101.689 85.2883C101.696 85.2784 101.704 85.2691 101.711 85.2589C101.735 85.2217 101.759 85.1835 101.78 85.1441C101.782 85.1417 101.784 85.1395 101.785 85.1368C101.807 85.0946 101.829 85.0513 101.847 85.0066C101.853 84.9938 101.857 84.9806 101.862 84.9678C101.874 84.9363 101.886 84.9048 101.897 84.8721C101.904 84.851 101.908 84.8293 101.914 84.808C101.921 84.7826 101.928 84.7574 101.934 84.7316C101.939 84.7086 101.942 84.6851 101.946 84.6617C101.949 84.6412 101.954 84.6211 101.957 84.6002C102.021 84.0826 103.214 74.5115 103.747 68.3227C103.748 68.3168 103.748 68.3107 103.748 68.3048C103.902 66.5207 104 65.0184 104 64.0987C104 53.1784 95.1157 44.2939 84.1952 44.2939ZM77.3822 47.3412H83.6147L82.8187 56.481H76.5861L77.3822 47.3412ZM34.7361 92.9637C30.0202 92.9637 26.1835 89.127 26.1835 84.4112C26.1835 79.6955 30.0204 75.8588 34.7361 75.8588C39.4519 75.8588 43.2885 79.6955 43.2885 84.4112C43.2885 89.127 39.4519 92.9637 34.7361 92.9637ZM82.1636 92.9637C77.4478 92.9637 73.6114 89.127 73.6114 84.4112C73.6114 79.6955 77.448 75.8588 82.1636 75.8588C86.8795 75.8588 90.7162 79.6955 90.7162 84.4112C90.7162 89.127 86.8795 92.9637 82.1636 92.9637ZM99.0976 82.8872H93.6605C92.9118 77.2088 88.0437 72.8109 82.164 72.8109C76.2847 72.8109 71.4166 77.209 70.6679 82.8872H46.2322C45.4835 77.2088 40.6156 72.8109 34.7361 72.8109C28.8567 72.8109 23.9883 77.209 23.2396 82.8872H18.1322L19.4117 69.6832H74.0394V69.684C74.0402 69.684 74.0408 69.684 74.0416 69.684C74.0926 69.684 74.1432 69.6812 74.1931 69.6761C74.2025 69.6753 74.2116 69.6733 74.221 69.672C74.2608 69.6674 74.3004 69.6617 74.3394 69.654C74.3562 69.6505 74.3727 69.6458 74.3893 69.6418C74.4198 69.6345 74.4503 69.6273 74.4799 69.6184C74.5003 69.6123 74.5195 69.605 74.5392 69.5981C74.5648 69.5892 74.5904 69.5804 74.6152 69.5703C74.6365 69.5615 74.6571 69.5518 74.6778 69.542C74.7003 69.5317 74.7229 69.5213 74.7446 69.5099C74.7653 69.499 74.7856 69.4872 74.8062 69.4754C74.8271 69.4632 74.8478 69.4508 74.8681 69.4378C74.8878 69.425 74.9065 69.4116 74.9254 69.3982C74.9455 69.384 74.965 69.3694 74.9845 69.3541C75.002 69.3401 75.0192 69.3257 75.0363 69.3109C75.0556 69.2942 75.0745 69.2772 75.0928 69.2595C75.1082 69.2447 75.1236 69.2294 75.1387 69.2138C75.157 69.1947 75.1746 69.175 75.1921 69.1549C75.2057 69.139 75.2191 69.1232 75.2321 69.1069C75.249 69.0856 75.265 69.0637 75.2809 69.0415C75.2928 69.0249 75.3044 69.0082 75.3158 68.9912C75.3306 68.9682 75.3448 68.9446 75.3585 68.9207C75.3688 68.9028 75.3794 68.8849 75.3887 68.8666C75.4015 68.8427 75.4125 68.8183 75.4241 68.7937C75.433 68.774 75.4421 68.7547 75.4503 68.7344C75.4602 68.7104 75.4686 68.6859 75.4773 68.6613C75.4848 68.6395 75.4927 68.6178 75.4994 68.5955C75.5061 68.5719 75.5116 68.5477 75.5177 68.5238C75.5236 68.4996 75.5301 68.4756 75.5348 68.451C75.5394 68.4271 75.5423 68.4027 75.5459 68.3783C75.5496 68.3531 75.5539 68.3284 75.5563 68.3028C75.5567 68.2991 75.5575 68.2957 75.5577 68.292L76.3213 59.5271H84.1948C88.8625 59.5271 90.9677 61.9455 93.1962 64.5061C95.035 66.6189 97.088 68.9761 100.578 69.5512C100.135 74.2373 99.4181 80.2531 99.0976 82.8872ZM100.838 66.4982C98.5743 66.0367 97.1815 64.4452 95.4941 62.5066C93.3838 60.0823 90.8076 57.1237 85.869 56.5725L86.6571 47.5236C94.7342 48.7182 100.953 55.6952 100.953 64.0991C100.953 64.6701 100.91 65.4996 100.838 66.4982Z" fill="white"/>
<path d="M34.7361 78.8252C31.6561 78.8252 29.1501 81.3309 29.1501 84.4111C29.1501 87.4913 31.6561 89.9971 34.7361 89.9971C37.8161 89.9971 40.322 87.4913 40.322 84.4111C40.322 81.3311 37.8161 78.8252 34.7361 78.8252ZM34.7361 86.9502C33.3359 86.9502 32.197 85.8113 32.197 84.4111C32.197 83.011 33.3359 81.8721 34.7361 81.8721C36.1362 81.8721 37.2751 83.011 37.2751 84.4111C37.2751 85.8113 36.136 86.9502 34.7361 86.9502Z" fill="white"/>
<path d="M82.1636 78.8252C79.0836 78.8252 76.5776 81.3309 76.5776 84.4111C76.5776 87.4913 79.0836 89.9971 82.1636 89.9971C85.2436 89.9971 87.7495 87.4913 87.7495 84.4111C87.7495 81.3311 85.2436 78.8252 82.1636 78.8252ZM82.1636 86.9502C80.7634 86.9502 79.6245 85.8113 79.6245 84.4111C79.6245 83.011 80.7634 81.8721 82.1636 81.8721C83.5637 81.8721 84.7026 83.011 84.7026 84.4111C84.7026 85.8113 83.5637 86.9502 82.1636 86.9502Z" fill="white"/>
<path d="M14.4219 44.2949H6.97412C6.13257 44.2949 5.45068 44.977 5.45068 45.8184C5.45068 46.6597 6.13257 47.3418 6.97412 47.3418H14.4219C15.2634 47.3418 15.9453 46.6597 15.9453 45.8184C15.9453 44.977 15.2634 44.2949 14.4219 44.2949Z" fill="white"/>
</svg>
