<svg width="76" height="76" viewBox="0 0 76 76" fill="none" xmlns="http://www.w3.org/2000/svg">
<g clip-path="url(#clip0_266_331)">
<path d="M72.6633 38.8361C74.4202 35.3603 73.6927 31.2345 70.8529 28.5692L66.7313 24.7006C65.7805 23.8085 65.1994 22.8016 64.9019 21.5319L63.6125 16.0284C62.7244 12.2364 59.5148 9.54333 55.6261 9.32705L49.9823 9.01311C48.6804 8.94067 47.5879 8.54301 46.5441 7.76178L42.0188 4.37444C38.9013 2.0407 34.7114 2.0404 31.5935 4.37444L27.0682 7.76163C26.0244 8.54301 24.9317 8.94067 23.6299 9.01311L17.9862 9.32705C14.0976 9.54333 10.8881 12.2364 9.9998 16.0284L8.71032 21.532C8.413 22.8016 7.83172 23.8085 6.88113 24.7007L2.75932 28.5692C-0.0804418 31.2343 -0.807934 35.3603 0.948972 38.8361L3.49913 43.8808C4.08739 45.0445 4.28926 46.1894 4.13444 47.4841L3.4635 53.0968C3.00142 56.9638 5.09617 60.592 8.67618 62.1254L13.8724 64.3507C15.0709 64.864 15.9615 65.6113 16.6753 66.7024L19.7692 71.4333C21.9006 74.6927 25.8375 76.1257 29.5658 74.9989L34.9766 73.3637C36.2248 72.9864 37.3874 72.9865 38.6353 73.3637L44.0462 74.9989C44.8945 75.2553 45.7532 75.3792 46.5993 75.3791C49.472 75.3789 52.1963 73.9511 53.8427 71.4333L56.9368 66.7024C57.6505 65.6113 58.5411 64.8639 59.7396 64.3506L64.9358 62.1252C68.5158 60.5919 70.6107 56.9636 70.1485 53.0967L69.4775 47.4838C69.3227 46.1893 69.5246 45.0442 70.1128 43.8806L72.6633 38.8361ZM67.9936 42.8095C67.1954 44.3884 66.9096 46.0097 67.1196 47.766L67.7905 53.3787C68.1318 56.2339 66.6443 58.8102 64.0011 59.9423L58.8049 62.1677C57.1787 62.8642 55.9176 63.9224 54.9493 65.4027L51.8553 70.1336C50.2816 72.54 47.4858 73.5574 44.7334 72.7256L39.3226 71.0904C38.4759 70.8345 37.6412 70.7065 36.8061 70.7065C35.9713 70.7065 35.1362 70.8345 34.2897 71.0904L28.8788 72.7256C26.1265 73.5573 23.3308 72.54 21.7569 70.1336L18.6631 65.4027C17.6947 63.9222 16.4334 62.864 14.8074 62.1677L9.61119 59.9423C6.96782 58.8103 5.48047 56.2339 5.82173 53.3787L6.49267 47.766C6.70271 46.0095 6.41682 44.3883 5.61867 42.8094L3.06851 37.7647C1.77146 35.1984 2.28788 32.2688 4.38456 30.3008L8.50637 26.4324C9.79614 25.2219 10.6192 23.7961 11.0227 22.0737L12.3122 16.5701C12.968 13.7704 15.2469 11.8581 18.118 11.6985L23.7617 11.3845C25.528 11.2863 27.075 10.7231 28.4913 9.66311L33.0165 6.27577C35.3185 4.55271 38.2936 4.55256 40.5956 6.27577L45.1209 9.66311C46.5371 10.7231 48.0843 11.2863 49.8504 11.3845L55.4941 11.6985C58.3653 11.8582 60.6442 13.7704 61.2999 16.5702L62.5894 22.0737C62.9929 23.7963 63.8161 25.222 65.1059 26.4324L69.2275 30.3008C71.3242 32.2687 71.8406 35.1984 70.5436 37.7647L67.9936 42.8095ZM36.8063 14.7233C23.4202 14.7233 12.5299 25.6136 12.5299 38.9997C12.5299 52.3858 23.4202 63.2761 36.8063 63.2761C50.1924 63.2761 61.0826 52.3858 61.0826 38.9997C61.0826 25.6136 50.1924 14.7233 36.8063 14.7233ZM36.8063 60.9011C24.7298 60.9011 14.9049 51.0761 14.9049 38.9997C14.9049 26.9233 24.7298 17.0983 36.8063 17.0983C48.8827 17.0983 58.7076 26.9233 58.7076 38.9997C58.7076 51.0761 48.8827 60.9011 36.8063 60.9011ZM46.9138 27.996C46.908 27.996 46.902 27.996 46.8962 27.996C45.7096 28.0006 44.5967 28.467 43.7629 29.3094L33.9155 39.2549L29.8486 35.1878C29.0087 34.348 27.8919 33.8854 26.7038 33.8854C25.5155 33.8854 24.3988 34.348 23.5588 35.188C21.8249 36.922 21.8249 39.7435 23.5588 41.4774L30.7819 48.7005C31.649 49.5674 32.7878 50.001 33.9267 50.001C35.0657 50.001 36.2047 49.5676 37.0717 48.7005C39.8102 45.9619 42.5734 43.1591 45.2457 40.4487C46.8513 38.8199 48.4573 37.1913 50.0669 35.5665C51.7891 33.8286 51.7801 31.0124 50.0468 29.2888C49.2082 28.4546 48.0963 27.996 46.9138 27.996ZM48.3799 33.8946C46.7688 35.5209 45.1615 37.1511 43.5542 38.7812C40.885 41.4887 38.1248 44.2884 35.3923 47.021C34.5842 47.8291 33.2692 47.8291 32.4614 47.021L25.2384 39.7979C24.4305 38.9899 24.4305 37.675 25.2384 36.867C25.6297 36.4757 26.1501 36.2601 26.7038 36.2601C27.2573 36.2601 27.7779 36.4757 28.1691 36.867L33.0799 41.7779C33.3027 42.0005 33.6046 42.1256 33.9196 42.1256H33.9226C34.2386 42.1249 34.5413 41.9981 34.7635 41.7737L45.4507 30.9801C45.8375 30.5892 46.3542 30.3728 46.9054 30.3707H46.9137C47.4642 30.3707 47.9818 30.5842 48.3722 30.9724C49.1784 31.7745 49.182 33.0852 48.3799 33.8946Z" fill="white" stroke="white" stroke-width="0.4"/>
</g>
<defs>
<clipPath id="clip0_266_331">
<rect width="76" height="76" fill="white"/>
</clipPath>
</defs>
</svg>
