<svg width="16" height="16" viewBox="0 0 16 16" fill="none" xmlns="http://www.w3.org/2000/svg">
<path d="M8.45263 0.964357C8.27267 0.580945 7.72733 0.580944 7.54738 0.964356L5.64064 5.02681C5.56974 5.17789 5.42813 5.28362 5.26314 5.3087L0.962497 5.96229C0.560058 6.02346 0.395451 6.51419 0.679609 6.80566L3.82388 10.0308C3.93464 10.1444 3.98491 10.3038 3.95932 10.4604L3.22033 14.984C3.15304 15.3959 3.59018 15.7041 3.95551 15.5023L7.75827 13.4021C7.90872 13.319 8.09129 13.319 8.24173 13.4021L12.0445 15.5023C12.4098 15.7041 12.847 15.3959 12.7797 14.984L12.0407 10.4606C12.0151 10.3039 12.0655 10.1444 12.1764 10.0307L15.3202 6.81063C15.6045 6.51941 15.4403 6.02865 15.038 5.96709L10.7365 5.30892C10.5717 5.2837 10.4303 5.17802 10.3595 5.02711L8.45263 0.964357Z" fill="#219653"/>
</svg>
