<svg width="40" height="40" viewBox="0 0 40 40" fill="none" xmlns="http://www.w3.org/2000/svg">
<path d="M20.005 0H19.995C8.9675 0 0 8.97 0 20C0 24.375 1.41 28.43 3.8075 31.7225L1.315 39.1525L9.0025 36.695C12.165 38.79 15.9375 40 20.005 40C31.0325 40 40 31.0275 40 20C40 8.9725 31.0325 0 20.005 0Z" fill="#219653"/>
<path d="M31.6424 28.2426C31.1599 29.6051 29.2449 30.7351 27.7174 31.0651C26.6724 31.2876 25.3074 31.4651 20.7124 29.5601C14.8349 27.1251 11.0499 21.1526 10.7549 20.7651C10.4724 20.3776 8.37988 17.6026 8.37988 14.7326C8.37988 11.8626 9.83738 10.4651 10.4249 9.86508C10.9074 9.37258 11.7049 9.14758 12.4699 9.14758C12.7174 9.14758 12.9399 9.16008 13.1399 9.17008C13.7274 9.19508 14.0224 9.23008 14.4099 10.1576C14.8924 11.3201 16.0674 14.1901 16.2074 14.4851C16.3499 14.7801 16.4924 15.1801 16.2924 15.5676C16.1049 15.9676 15.9399 16.1451 15.6449 16.4851C15.3499 16.8251 15.0699 17.0851 14.7749 17.4501C14.5049 17.7676 14.1999 18.1076 14.5399 18.6951C14.8799 19.2701 16.0549 21.1876 17.7849 22.7276C20.0174 24.7151 21.8274 25.3501 22.4749 25.6201C22.9574 25.8201 23.5324 25.7726 23.8849 25.3976C24.3324 24.9151 24.8849 24.1151 25.4474 23.3276C25.8474 22.7626 26.3524 22.6926 26.8824 22.8926C27.4224 23.0801 30.2799 24.4926 30.8674 24.7851C31.4549 25.0801 31.8424 25.2201 31.9849 25.4676C32.1249 25.7151 32.1249 26.8776 31.6424 28.2426Z" fill="white"/>
</svg>
