<svg width="29" height="28" viewBox="0 0 29 28" fill="none" xmlns="http://www.w3.org/2000/svg">
<g clip-path="url(#clip0_299_365)">
<path d="M14.8497 0H14.8427C7.12344 0 0.846191 6.279 0.846191 14C0.846191 17.0625 1.83319 19.901 3.51144 22.2057L1.76669 27.4067L7.14794 25.6865C9.36169 27.153 12.0024 28 14.8497 28C22.5689 28 28.8462 21.7192 28.8462 14C28.8462 6.28075 22.5689 0 14.8497 0Z" fill="white"/>
<path d="M22.9959 19.7698C22.6582 20.7236 21.3177 21.5146 20.2484 21.7456C19.5169 21.9013 18.5614 22.0256 15.3449 20.6921C11.2307 18.9876 8.58116 14.8068 8.37466 14.5356C8.17691 14.2643 6.71216 12.3218 6.71216 10.3128C6.71216 8.30382 7.73241 7.32557 8.14366 6.90557C8.48141 6.56082 9.03966 6.40332 9.57516 6.40332C9.74841 6.40332 9.90416 6.41207 10.0442 6.41907C10.4554 6.43657 10.6619 6.46107 10.9332 7.11032C11.2709 7.92407 12.0934 9.93307 12.1914 10.1396C12.2912 10.3461 12.3909 10.6261 12.2509 10.8973C12.1197 11.1773 12.0042 11.3016 11.7977 11.5396C11.5912 11.7776 11.3952 11.9596 11.1887 12.2151C10.9997 12.4373 10.7862 12.6753 11.0242 13.0866C11.2622 13.4891 12.0847 14.8313 13.2957 15.9093C14.8584 17.3006 16.1254 17.7451 16.5787 17.9341C16.9164 18.0741 17.3189 18.0408 17.5657 17.7783C17.8789 17.4406 18.2657 16.8806 18.6594 16.3293C18.9394 15.9338 19.2929 15.8848 19.6639 16.0248C20.0419 16.1561 22.0422 17.1448 22.4534 17.3496C22.8647 17.5561 23.1359 17.6541 23.2357 17.8273C23.3337 18.0006 23.3337 18.8143 22.9959 19.7698Z" fill="#27AE60"/>
</g>
<defs>
<clipPath id="clip0_299_365">
<rect width="28" height="28" fill="white" transform="translate(0.846191)"/>
</clipPath>
</defs>
</svg>
