<svg width="29" height="28" viewBox="0 0 29 28" fill="none" xmlns="http://www.w3.org/2000/svg">
<path d="M14.9231 28C22.6551 28 28.9231 21.732 28.9231 14C28.9231 6.26801 22.6551 0 14.9231 0C7.19111 0 0.923096 6.26801 0.923096 14C0.923096 21.732 7.19111 28 14.9231 28Z" fill="white"/>
<path d="M7.32932 13.6967L20.8277 8.49216C21.4542 8.26583 22.0013 8.645 21.7983 9.59233L21.7995 9.59116L19.5012 20.419C19.3308 21.1867 18.8747 21.3733 18.2365 21.0117L14.7365 18.4322L13.0483 20.0585C12.8617 20.2452 12.7042 20.4027 12.3425 20.4027L12.591 16.8408L19.0777 10.9807C19.36 10.7322 19.0147 10.5922 18.6425 10.8395L10.6263 15.8865L7.17066 14.8085C6.42049 14.5705 6.40416 14.0583 7.32932 13.6967Z" fill="#27AE60"/>
</svg>
