<svg width="80" height="40" viewBox="0 0 80 40" fill="none" xmlns="http://www.w3.org/2000/svg">
<path d="M0 0H75C77.7614 0 80 2.23858 80 5V35C80 37.7614 77.7614 40 75 40H0V0Z" fill="#27AE60"/>
<path d="M49 28L44.9862 23.9791L49 28ZM47.2105 18.6053C47.2105 20.6223 46.4093 22.5567 44.983 23.983C43.5567 25.4093 41.6223 26.2105 39.6053 26.2105C37.5882 26.2105 35.6538 25.4093 34.2275 23.983C32.8013 22.5567 32 20.6223 32 18.6053C32 16.5882 32.8013 14.6538 34.2275 13.2275C35.6538 11.8013 37.5882 11 39.6053 11C41.6223 11 43.5567 11.8013 44.983 13.2275C46.4093 14.6538 47.2105 16.5882 47.2105 18.6053V18.6053Z" stroke="white" stroke-width="1.8" stroke-linecap="round"/>
</svg>
